<svg preserveAspectRatio="none" width="100%" height="100%" overflow="visible" style="display: block;" viewBox="0 0 44 44" fill="none" xmlns="http://www.w3.org/2000/svg">
<g id="challenge">
<path id="Vector" d="M38.8666 40.3334C39.38 40.3334 39.6366 40.3333 39.8328 40.2325C40.0048 40.1447 40.1447 40.0048 40.2325 39.8328C40.3333 39.6367 40.3333 39.38 40.3333 38.8667V19.8C40.3333 19.2867 40.3333 19.03 40.2325 18.8339C40.1447 18.6619 40.0048 18.522 39.8328 18.4342C39.6366 18.3334 39.38 18.3334 38.8666 18.3334H34.4666C33.9533 18.3334 33.6966 18.3334 33.5005 18.4342C33.3285 18.522 33.1886 18.6619 33.1008 18.8339C33 19.03 33 19.2867 33 19.8V24.2C33 24.7134 33 24.97 32.8991 25.1662C32.8113 25.3382 32.6715 25.4781 32.4995 25.5659C32.3033 25.6667 32.0466 25.6667 31.5333 25.6667H27.1333C26.62 25.6667 26.3633 25.6667 26.1671 25.7675C25.9951 25.8553 25.8553 25.9952 25.7675 26.1672C25.6666 26.3634 25.6666 26.62 25.6666 27.1334V31.5334C25.6666 32.0467 25.6666 32.3033 25.5658 32.4995C25.478 32.6715 25.3381 32.8114 25.1661 32.8992C24.97 33 24.7133 33 24.2 33H19.8C19.2866 33 19.03 33 18.8338 33.1009C18.6618 33.1887 18.5219 33.3285 18.4341 33.5005C18.3333 33.6967 18.3333 33.9533 18.3333 34.4667V38.8667C18.3333 39.38 18.3333 39.6367 18.4341 39.8328C18.5219 40.0048 18.6618 40.1447 18.8338 40.2325C19.03 40.3333 19.2866 40.3334 19.8 40.3334H38.8666ZM18.3333 12.4667C18.3333 11.9534 18.3333 11.6967 18.4341 11.5005C18.5219 11.3285 18.6618 11.1887 18.8338 11.1009C19.03 11 19.2866 11 19.8 11H24.2C24.7133 11 24.97 11 25.1661 11.099C25.3384 11.1873 25.4783 11.3278 25.5658 11.5005C25.6666 11.6967 25.6666 11.9534 25.6666 12.4667V16.8667C25.6666 17.38 25.6666 17.6367 25.5658 17.8329C25.478 18.0048 25.3381 18.1447 25.1661 18.2325C24.97 18.3334 24.7133 18.3334 24.2 18.3334H19.8C19.2866 18.3334 19.03 18.3334 18.8338 18.2325C18.6618 18.1447 18.5219 18.0048 18.4341 17.8329C18.3333 17.6367 18.3333 17.38 18.3333 16.8667V12.4667ZM5.49996 23.4667C5.49996 22.9534 5.49996 22.6967 5.59896 22.5005C5.68724 22.3282 5.82779 22.1883 6.00046 22.1009C6.19663 22 6.4533 22 6.96663 22H11.3666C11.88 22 12.1366 22 12.3328 22.1009C12.5048 22.1887 12.6447 22.3285 12.7325 22.5005C12.8333 22.6967 12.8333 22.9534 12.8333 23.4667V27.8667C12.8333 28.38 12.8333 28.6367 12.7343 28.8329C12.646 29.0051 12.5055 29.145 12.3328 29.2325C12.1366 29.3334 11.88 29.3334 11.3666 29.3334H6.96663C6.4533 29.3334 6.19663 29.3334 6.00046 29.2325C5.82779 29.145 5.68724 29.0051 5.59896 28.8329C5.49996 28.6367 5.49996 28.38 5.49996 27.8667V23.4667ZM3.66663 5.13335C3.66663 4.62002 3.66663 4.36335 3.76563 4.16719C3.85359 3.99423 3.99417 3.85365 4.16713 3.76569C4.3633 3.66669 4.61996 3.66669 5.1333 3.66669H9.5333C10.0466 3.66669 10.3033 3.66669 10.4995 3.76569C10.6717 3.85396 10.8116 3.99451 10.8991 4.16719C11 4.36335 11 4.62002 11 5.13335V9.53335C11 10.0467 11 10.3034 10.901 10.4995C10.8127 10.6718 10.6721 10.8117 10.4995 10.8992C10.3033 11 10.0466 11 9.5333 11H5.1333C4.61996 11 4.3633 11 4.16713 10.901C3.99417 10.8131 3.85359 10.6725 3.76563 10.4995C3.66663 10.3034 3.66663 10.0467 3.66663 9.53335V5.13335Z" fill="var(--fill-0, white)" stroke="url(#paint0_linear_2006_195)" stroke-width="2.75" stroke-linecap="round" stroke-linejoin="round"/>
</g>
<defs>
<linearGradient id="paint0_linear_2006_195" x1="22" y1="3.66669" x2="22" y2="40.3333" gradientUnits="userSpaceOnUse">
<stop offset="0.11" stop-color="#E3342F"/>
<stop offset="0.22" stop-color="#F6993F"/>
<stop offset="0.33" stop-color="#FFED4A"/>
<stop offset="0.44" stop-color="#38C172"/>
<stop offset="0.55" stop-color="#4DC0B5"/>
<stop offset="0.66" stop-color="#3490DC"/>
<stop offset="0.77" stop-color="#6574CD"/>
<stop offset="0.88" stop-color="#9561E2"/>
<stop offset="0.99" stop-color="#F66D9B"/>
</linearGradient>
</defs>
</svg>
