<svg preserveAspectRatio="none" width="100%" height="100%" overflow="visible" style="display: block;" viewBox="0 0 22.9901 23" fill="none" xmlns="http://www.w3.org/2000/svg">
<g id="facebook">
<path id="Vector" fill-rule="evenodd" clip-rule="evenodd" d="M22.9901 11.4971C22.9901 5.14743 17.8436 0 11.495 0C5.14652 0 0 5.14743 0 11.4971C0 16.8889 3.7113 21.4131 8.71812 22.6555V15.0103H6.34775V11.4971H8.71812V9.98318C8.71812 6.06995 10.4887 4.25613 14.3299 4.25613C15.0582 4.25613 16.3147 4.39893 16.8288 4.54182V7.72662C16.5575 7.69812 16.0862 7.68377 15.5008 7.68377C13.6159 7.68377 12.8877 8.39786 12.8877 10.2545V11.4971H16.6424L15.9973 15.0103H12.8877V22.9098C18.5793 22.2223 22.9901 17.3751 22.9901 11.4971Z" fill="var(--fill-0, #FF0000)"/>
<path id="Vector_2" fill-rule="evenodd" clip-rule="evenodd" d="M15.9962 15.0131L16.6416 11.4984H12.8849V10.2554C12.8849 8.39802 13.6135 7.68373 15.4994 7.68373C16.0852 7.68373 16.5566 7.69798 16.8281 7.72648V4.54048C16.3138 4.39758 15.0565 4.25468 14.3279 4.25468C10.4847 4.25468 8.71317 6.0692 8.71317 9.98394V11.4984H6.34155V15.0131H8.71317V22.6613C9.60303 22.882 10.5335 23 11.4915 23C11.9633 23 12.4281 22.9709 12.8849 22.9157V15.0131H15.9962Z" fill="var(--fill-0, white)"/>
</g>
</svg>
