<svg preserveAspectRatio="none" width="100%" height="100%" overflow="visible" style="display: block;" viewBox="0 0 22.4651 23" fill="none" xmlns="http://www.w3.org/2000/svg">
<g id="linkedin">
<path id="Vector" fill-rule="evenodd" clip-rule="evenodd" d="M2.49653 23H19.9686C21.3473 23 22.4651 21.8556 22.4651 20.4449V2.55514C22.4651 1.14441 21.3473 0 19.9686 0H2.49653C1.11783 0 0 1.14441 0 2.55514V20.4449C0 21.8556 1.11783 23 2.49653 23Z" fill="var(--fill-0, #FF0000)"/>
<path id="Vector_2" fill-rule="evenodd" clip-rule="evenodd" d="M19.2946 19.834H15.9819V14.0011C15.9819 12.4014 15.394 11.5075 14.1693 11.5075C12.8368 11.5075 12.1411 12.4377 12.1411 14.0011V19.834H8.94801V8.72232H12.1411V10.2187C12.1411 10.2187 13.1013 8.38244 15.3823 8.38244C17.6623 8.38244 19.2946 9.82203 19.2946 12.799V19.834ZM5.1389 7.26689C4.05188 7.26689 3.17048 6.34875 3.17048 5.21645C3.17048 4.08414 4.05188 3.166 5.1389 3.166C6.22682 3.166 7.10731 4.08414 7.10731 5.21645C7.10731 6.34875 6.22682 7.26689 5.1389 7.26689ZM3.49025 19.834H6.82016V8.72232H3.49025V19.834Z" fill="var(--fill-0, white)"/>
</g>
</svg>
