<svg preserveAspectRatio="none" width="100%" height="100%" overflow="visible" style="display: block;" viewBox="0 0 40 40" fill="none" xmlns="http://www.w3.org/2000/svg">
<g id="star">
<g id="Vector">
<path d="M7.50003 36.6667V28.3333ZM7.50003 11.6667V3.33333ZM3.33336 7.5H11.6667ZM3.33336 32.5H11.6667ZM21.6667 5L18.7767 12.515C18.3067 13.7367 18.0717 14.3483 17.705 14.8617C17.3814 15.3175 16.9837 15.7158 16.5284 16.04C16.015 16.405 15.4034 16.64 14.1817 17.11L6.6667 20L14.1817 22.89C15.4034 23.36 16.015 23.595 16.5284 23.9617C16.9834 24.285 17.3817 24.6833 17.7067 25.1383C18.0717 25.6517 18.3067 26.2633 18.7767 27.485L21.6667 35L24.5567 27.485C25.0267 26.2633 25.2617 25.6517 25.6284 25.1383C25.9517 24.6833 26.35 24.285 26.805 23.96C27.3184 23.595 27.93 23.36 29.1517 22.89L36.6667 20L29.1517 17.11C27.93 16.64 27.3184 16.405 26.805 16.04C26.3497 15.7158 25.952 15.3175 25.6284 14.8617C25.2617 14.3483 25.0284 13.7367 24.5567 12.515L21.6667 5Z" fill="var(--fill-0, white)"/>
<path d="M7.50003 36.6667V28.3333M7.50003 11.6667V3.33333M3.33336 7.5H11.6667M3.33336 32.5H11.6667M21.6667 5L18.7767 12.515C18.3067 13.7367 18.0717 14.3483 17.705 14.8617C17.3814 15.3175 16.9837 15.7158 16.5284 16.04C16.015 16.405 15.4034 16.64 14.1817 17.11L6.6667 20L14.1817 22.89C15.4034 23.36 16.015 23.595 16.5284 23.9617C16.9834 24.285 17.3817 24.6833 17.7067 25.1383C18.0717 25.6517 18.3067 26.2633 18.7767 27.485L21.6667 35L24.5567 27.485C25.0267 26.2633 25.2617 25.6517 25.6284 25.1383C25.9517 24.6833 26.35 24.285 26.805 23.96C27.3184 23.595 27.93 23.36 29.1517 22.89L36.6667 20L29.1517 17.11C27.93 16.64 27.3184 16.405 26.805 16.04C26.3497 15.7158 25.952 15.3175 25.6284 14.8617C25.2617 14.3483 25.0284 13.7367 24.5567 12.515L21.6667 5Z" stroke="url(#paint0_linear_2006_192)" stroke-width="2.5" stroke-linecap="round" stroke-linejoin="round"/>
</g>
</g>
<defs>
<linearGradient id="paint0_linear_2006_192" x1="20" y1="3.33333" x2="20" y2="36.6667" gradientUnits="userSpaceOnUse">
<stop stop-color="#E3342F"/>
<stop offset="0.254808" stop-color="#F6993F"/>
<stop offset="0.533654" stop-color="#FFED4A"/>
<stop offset="0.774038" stop-color="#38C172"/>
<stop offset="1" stop-color="#3490DC"/>
</linearGradient>
</defs>
</svg>
